{
  "accessors": [
    {
      "bufferView": 2,
      "componentType": 5126,
      "count": 16826,
      "max": [
        271.59466552734375,
        72.168754577636719,
        393.3692626953125
      ],
      "min": [
        -243.16038513183594,
        -74.401138305664062,
        0.279632568359375
      ],
      "type": "VEC3"
    },
    {
      "bufferView": 2,
      "byteOffset": 201912,
      "componentType": 5126,
      "count": 16826,
      "max": [
        1,
        1,
        1
      ],
      "min": [
        -1,
        -1,
        -1
      ],
      "type": "VEC3"
    },
    {
      "bufferView": 3,
      "componentType": 5126,
      "count": 16826,
      "max": [
        1,
        1,
        1,
        1
      ],
      "min": [
        -1,
        -1,
        -1,
        -1
      ],
      "type": "VEC4"
    },
    {
      "bufferView": 1,
      "componentType": 5126,
      "count": 16826,
      "max": [
        0.99500000476837158,
        0.99041849374771118
      ],
      "min": [
        0.004999999888241291,
        0.004999999888241291
      ],
      "type": "VEC2"
    },
    {
      "bufferView": 0,
      "componentType": 5125,
      "count": 51540,
      "max": [
        16825
      ],
      "min": [
        0
      ],
      "type": "SCALAR"
    },
    {
      "bufferView": 2,
      "byteOffset": 403824,
      "componentType": 5126,
      "count": 3070,
      "max": [
        280.07815551757812,
        78.242393493652344,
        266.90924072265625
      ],
      "min": [
        -271.65521240234375,
        -51.898334503173828,
        10.858352661132812
      ],
      "type": "VEC3"
    },
    {
      "bufferView": 2,
      "byteOffset": 440664,
      "componentType": 5126,
      "count": 3070,
      "max": [
        1,
        1,
        1
      ],
      "min": [
        -1,
        -1,
        -1
      ],
      "type": "VEC3"
    },
    {
      "bufferView": 3,
      "byteOffset": 269216,
      "componentType": 5126,
      "count": 3070,
      "max": [
        1,
        1,
        1,
        1
      ],
      "min": [
        -1,
        -1,
        -1,
        -1
      ],
      "type": "VEC4"
    },
    {
      "bufferView": 1,
      "byteOffset": 134608,
      "componentType": 5126,
      "count": 3070,
      "max": [
        0.99732339382171631,
        0.99750000238418579
      ],
      "min": [
        0.0024999999441206455,
        0.0024999999441206455
      ],
      "type": "VEC2"
    },
    {
      "bufferView": 0,
      "byteOffset": 206160,
      "componentType": 5125,
      "count": 8034,
      "max": [
        3069
      ],
      "min": [
        0
      ],
      "type": "SCALAR"
    },
    {
      "bufferView": 2,
      "byteOffset": 477504,
      "componentType": 5126,
      "count": 8154,
      "max": [
        294.51089477539062,
        77.4434814453125,
        262.67990112304688
      ],
      "min": [
        -294.51089477539062,
        -78.242393493652344,
        14.740875244140625
      ],
      "type": "VEC3"
    },
    {
      "bufferView": 2,
      "byteOffset": 575352,
      "componentType": 5126,
      "count": 8154,
      "max": [
        1,
        1,
        1
      ],
      "min": [
        -1,
        -1,
        -1
      ],
      "type": "VEC3"
    },
    {
      "bufferView": 3,
      "byteOffset": 318336,
      "componentType": 5126,
      "count": 8154,
      "max": [
        1,
        1,
        1,
        1
      ],
      "min": [
        -1,
        -1,
        -1,
        -1
      ],
      "type": "VEC4"
    },
    {
      "bufferView": 1,
      "byteOffset": 159168,
      "componentType": 5126,
      "count": 8154,
      "max": [
        0.99673080444335938,
        0.99750000238418579
      ],
      "min": [
        0.0024999999441206455,
        0.0024999999441206455
      ],
      "type": "VEC2"
    },
    {
      "bufferView": 0,
      "byteOffset": 238296,
      "componentType": 5125,
      "count": 22614,
      "max": [
        8153
      ],
      "min": [
        0
      ],
      "type": "SCALAR"
    }
  ],
  "asset": {
    "extras": {
      "author": "Lyskilde (https://sketchfab.com/longtail)",
      "license": "CC-BY-4.0 (http://creativecommons.org/licenses/by/4.0/)",
      "source": "https://sketchfab.com/3d-models/k-10-zaraysk-9863ce9aa4c449758a304a92dbb03d6f",
      "title": "K-10 (Zaraysk)"
    },
    "generator": "Sketchfab-6.43.0",
    "version": "2.0"
  },
  "bufferViews": [
    {
      "buffer": 0,
      "byteLength": 328752,
      "byteOffset": 0,
      "name": "floatBufferViews",
      "target": 34963
    },
    {
      "buffer": 0,
      "byteLength": 224400,
      "byteOffset": 328752,
      "byteStride": 8,
      "name": "floatBufferViews",
      "target": 34962
    },
    {
      "buffer": 0,
      "byteLength": 673200,
      "byteOffset": 553152,
      "byteStride": 12,
      "name": "floatBufferViews",
      "target": 34962
    },
    {
      "buffer": 0,
      "byteLength": 448800,
      "byteOffset": 1226352,
      "byteStride": 16,
      "name": "floatBufferViews",
      "target": 34962
    }
  ],
  "buffers": [
    {
      "byteLength": 1675152,
      "uri": "scene.bin"
    }
  ],
  "images": [
    {
      "uri": "textures/Eloco_c_baseColor.png"
    },
    {
      "uri": "textures/Eloco_c_metallicRoughness.png"
    },
    {
      "uri": "textures/Eloco_c_normal.png"
    },
    {
      "uri": "textures/Eloco_a_baseColor.png"
    },
    {
      "uri": "textures/Eloco_a_metallicRoughness.png"
    },
    {
      "uri": "textures/Eloco_a_normal.png"
    },
    {
      "uri": "textures/Eloco_b_baseColor.png"
    },
    {
      "uri": "textures/Eloco_b_metallicRoughness.png"
    },
    {
      "uri": "textures/Eloco_b_normal.png"
    }
  ],
  "materials": [
    {
      "doubleSided": true,
      "name": "Eloco_c",
      "normalTexture": {
        "index": 2,
        "scale": 1,
        "texCoord": 0
      },
      "occlusionTexture": {
        "index": 1,
        "strength": 1,
        "texCoord": 0
      },
      "pbrMetallicRoughness": {
        "baseColorFactor": [
          1,
          1,
          1,
          1
        ],
        "baseColorTexture": {
          "index": 0,
          "texCoord": 0
        },
        "metallicFactor": 1,
        "metallicRoughnessTexture": {
          "index": 1,
          "texCoord": 0
        },
        "roughnessFactor": 1
      }
    },
    {
      "doubleSided": true,
      "emissiveFactor": [
        0,
        0,
        0
      ],
      "name": "Eloco_a",
      "normalTexture": {
        "index": 5,
        "scale": 1,
        "texCoord": 0
      },
      "occlusionTexture": {
        "index": 4,
        "strength": 1,
        "texCoord": 0
      },
      "pbrMetallicRoughness": {
        "baseColorFactor": [
          1,
          1,
          1,
          1
        ],
        "baseColorTexture": {
          "index": 3,
          "texCoord": 0
        },
        "metallicFactor": 1,
        "metallicRoughnessTexture": {
          "index": 4,
          "texCoord": 0
        },
        "roughnessFactor": 1
      }
    },
    {
      "doubleSided": true,
      "name": "Eloco_b",
      "normalTexture": {
        "index": 8,
        "scale": 1,
        "texCoord": 0
      },
      "occlusionTexture": {
        "index": 7,
        "strength": 1,
        "texCoord": 0
      },
      "pbrMetallicRoughness": {
        "baseColorFactor": [
          1,
          1,
          1,
          1
        ],
        "baseColorTexture": {
          "index": 6,
          "texCoord": 0
        },
        "metallicFactor": 1,
        "metallicRoughnessTexture": {
          "index": 7,
          "texCoord": 0
        },
        "roughnessFactor": 1
      }
    }
  ],
  "meshes": [
    {
      "name": "K10ELocomotive_Eloco_c_0",
      "primitives": [
        {
          "attributes": {
            "NORMAL": 1,
            "POSITION": 0,
            "TANGENT": 2,
            "TEXCOORD_0": 3
          },
          "indices": 4,
          "material": 0,
          "mode": 4
        }
      ]
    },
    {
      "name": "K10ELocomotive_Eloco_a_0",
      "primitives": [
        {
          "attributes": {
            "NORMAL": 6,
            "POSITION": 5,
            "TANGENT": 7,
            "TEXCOORD_0": 8
          },
          "indices": 9,
          "material": 1,
          "mode": 4
        }
      ]
    },
    {
      "name": "K10ELocomotive_Eloco_b_0",
      "primitives": [
        {
          "attributes": {
            "NORMAL": 11,
            "POSITION": 10,
            "TANGENT": 12,
            "TEXCOORD_0": 13
          },
          "indices": 14,
          "material": 2,
          "mode": 4
        }
      ]
    }
  ],
  "nodes": [
    {
      "children": [
        1
      ],
      "name": "RootNode (gltf orientation matrix)",
      "rotation": [
        -0.70710678118654746,
        -0,
        -0,
        0.70710678118654757
      ]
    },
    {
      "children": [
        2
      ],
      "name": "RootNode (model correction matrix)"
    },
    {
      "children": [
        3
      ],
      "matrix": [
        1,
        0,
        0,
        0,
        0,
        0,
        1,
        0,
        0,
        -1,
        0,
        0,
        0,
        0,
        0,
        1
      ],
      "name": "c406fc4b52604e55b5f30acd0ea45a79.fbx"
    },
    {
      "children": [
        4
      ],
      "name": "RootNode"
    },
    {
      "children": [
        5,
        6,
        7
      ],
      "matrix": [
        1,
        0,
        0,
        0,
        0,
        2.2204460492503131e-16,
        -1,
        0,
        0,
        1,
        2.2204460492503131e-16,
        0,
        0,
        0,
        0,
        1
      ],
      "name": "K10ELocomotive"
    },
    {
      "mesh": 0,
      "name": "K10ELocomotive_Eloco_c_0"
    },
    {
      "mesh": 1,
      "name": "K10ELocomotive_Eloco_a_0"
    },
    {
      "mesh": 2,
      "name": "K10ELocomotive_Eloco_b_0"
    }
  ],
  "samplers": [
    {
      "magFilter": 9729,
      "minFilter": 9987,
      "wrapS": 10497,
      "wrapT": 10497
    }
  ],
  "scene": 0,
  "scenes": [
    {
      "name": "OSG_Scene",
      "nodes": [
        0
      ]
    }
  ],
  "textures": [
    {
      "sampler": 0,
      "source": 0
    },
    {
      "sampler": 0,
      "source": 1
    },
    {
      "sampler": 0,
      "source": 2
    },
    {
      "sampler": 0,
      "source": 3
    },
    {
      "sampler": 0,
      "source": 4
    },
    {
      "sampler": 0,
      "source": 5
    },
    {
      "sampler": 0,
      "source": 6
    },
    {
      "sampler": 0,
      "source": 7
    },
    {
      "sampler": 0,
      "source": 8
    }
  ]
}

